<?xml version="1.0" encoding="UTF-8" standalone="no"?>
<!DOCTYPE svg PUBLIC "-//W3C//DTD SVG 1.1//EN" "http://www.w3.org/Graphics/SVG/1.1/DTD/svg11.dtd">
<svg width="100%" height="100%" viewBox="0 0 16 16" version="1.1" xmlns="http://www.w3.org/2000/svg" xmlns:xlink="http://www.w3.org/1999/xlink" xml:space="preserve" xmlns:serif="http://www.serif.com/" style="fill-rule:evenodd;clip-rule:evenodd;stroke-linejoin:round;stroke-miterlimit:2;">
    <g transform="matrix(-0.470571,5.76283e-17,-4.61027e-17,-0.376457,15.5413,12.6726)">
        <path d="M15.125,8.901C15.319,8.513 15.66,8.277 16.026,8.277C16.392,8.277 16.733,8.513 16.927,8.901C17.868,10.783 19.341,13.729 20.323,15.693C20.527,16.102 20.538,16.618 20.351,17.04C20.164,17.463 19.808,17.725 19.421,17.725C17.498,17.725 14.553,17.725 12.63,17.725C12.244,17.725 11.888,17.463 11.701,17.04C11.514,16.618 11.525,16.102 11.729,15.693C12.711,13.729 14.184,10.783 15.125,8.901Z"/>
    </g>
</svg>
