<?xml version="1.0" encoding="UTF-8" standalone="no"?>
<!DOCTYPE svg PUBLIC "-//W3C//DTD SVG 1.1//EN" "http://www.w3.org/Graphics/SVG/1.1/DTD/svg11.dtd">
<svg width="100%" height="100%" viewBox="0 0 16 16" version="1.1" xmlns="http://www.w3.org/2000/svg" xmlns:xlink="http://www.w3.org/1999/xlink" xml:space="preserve" xmlns:serif="http://www.serif.com/" style="fill-rule:evenodd;clip-rule:evenodd;stroke-linejoin:round;stroke-miterlimit:2;">
    <g transform="matrix(0.929615,0,0,0.842105,-3.15538,-2.85088)">
        <path d="M12,14.291C15.971,14.291 18.174,17.064 19.062,18.53C19.157,18.708 19.158,18.929 19.065,19.109C18.972,19.288 18.799,19.399 18.612,19.399C15.922,19.417 8.078,19.417 5.388,19.417C5.195,19.417 5.016,19.303 4.92,19.118C4.824,18.932 4.826,18.705 4.924,18.521C5.826,17.064 8.029,14.291 12,14.291Z" style="fill-rule:nonzero;"/>
    </g>
    <g transform="matrix(1.13998,0,0,1.13998,-1.10038,-0.560846)">
        <circle cx="7.983" cy="5.317" r="2.632"/>
    </g>
</svg>
